<mxfile host="app.diagrams.net" modified="2021-10-26T13:29:33.802Z" agent="5.0 (Macintosh; Intel Mac OS X 10_15_7) AppleWebKit/537.36 (KHTML, like Gecko) Chrome/95.0.4638.54 Safari/537.36" etag="uqHpddQ--5RfqHtylwEm" version="15.5.9" type="github">
  <diagram id="bno7F0bN4L9IeEybdrOH" name="Page-1">
    <mxGraphModel dx="1426" dy="737" grid="1" gridSize="10" guides="1" tooltips="1" connect="1" arrows="1" fold="1" page="1" pageScale="1" pageWidth="827" pageHeight="1169" math="0" shadow="0">
      <root>
        <mxCell id="0" />
        <mxCell id="1" parent="0" />
        <mxCell id="Q5FIG8UsByc4vJdWdwXC-1" value="Container" style="swimlane;" vertex="1" parent="1">
          <mxGeometry x="190" y="160" width="620" height="440" as="geometry" />
        </mxCell>
        <mxCell id="Q5FIG8UsByc4vJdWdwXC-4" value="" style="group" vertex="1" connectable="0" parent="Q5FIG8UsByc4vJdWdwXC-1">
          <mxGeometry x="30" y="200" width="570" height="220" as="geometry" />
        </mxCell>
        <mxCell id="Q5FIG8UsByc4vJdWdwXC-2" value="" style="rounded=0;whiteSpace=wrap;html=1;" vertex="1" parent="Q5FIG8UsByc4vJdWdwXC-4">
          <mxGeometry width="570" height="220" as="geometry" />
        </mxCell>
        <mxCell id="Q5FIG8UsByc4vJdWdwXC-3" value="table" style="text;html=1;strokeColor=none;fillColor=none;align=center;verticalAlign=middle;whiteSpace=wrap;rounded=0;" vertex="1" parent="Q5FIG8UsByc4vJdWdwXC-4">
          <mxGeometry width="60" height="30" as="geometry" />
        </mxCell>
        <mxCell id="Q5FIG8UsByc4vJdWdwXC-5" value="&lt;div style=&quot;font-family: &amp;#34;menlo&amp;#34; , &amp;#34;monaco&amp;#34; , &amp;#34;courier new&amp;#34; , monospace ; line-height: 18px&quot;&gt;&lt;span style=&quot;background-color: rgb(250 , 250 , 250)&quot;&gt;CcSimpleHeaderModal&lt;/span&gt;&lt;/div&gt;" style="rounded=0;whiteSpace=wrap;html=1;" vertex="1" parent="Q5FIG8UsByc4vJdWdwXC-1">
          <mxGeometry x="420" y="50" width="160" height="30" as="geometry" />
        </mxCell>
        <mxCell id="Q5FIG8UsByc4vJdWdwXC-6" value="" style="endArrow=classic;html=1;rounded=0;fontColor=#000000;entryX=0.826;entryY=-0.018;entryDx=0;entryDy=0;entryPerimeter=0;" edge="1" parent="Q5FIG8UsByc4vJdWdwXC-1" target="Q5FIG8UsByc4vJdWdwXC-2">
          <mxGeometry width="50" height="50" relative="1" as="geometry">
            <mxPoint x="500" y="80" as="sourcePoint" />
            <mxPoint x="550" y="30" as="targetPoint" />
          </mxGeometry>
        </mxCell>
        <mxCell id="Q5FIG8UsByc4vJdWdwXC-7" value="innerHeader" style="text;html=1;strokeColor=none;fillColor=none;align=center;verticalAlign=middle;whiteSpace=wrap;rounded=0;labelBackgroundColor=#FAFAFA;fontColor=#000000;" vertex="1" parent="Q5FIG8UsByc4vJdWdwXC-1">
          <mxGeometry x="510" y="90" width="60" height="30" as="geometry" />
        </mxCell>
      </root>
    </mxGraphModel>
  </diagram>
</mxfile>
